<svg xmlns="http://www.w3.org/2000/svg" xmlns:xlink="http://www.w3.org/1999/xlink" width="299" height="305" viewBox="0 0 299 305">
    <defs>
        <path id="a" d="M.507.27h257.12V267H.507z"/>
        <path id="c" d="M.31.599h13.333v29.104H.309z"/>
    </defs>
    <g fill="none" fill-rule="evenodd" opacity=".5">
        <path fill="#FFF" stroke="#252525" stroke-width="2" d="M241.881 116.882a6.431 6.431 0 0 0 0 9.09c.1.099.202.2.302.292a6.402 6.402 0 0 0 4.391 1.736 6.43 6.43 0 0 0 4.394-11.118 6.426 6.426 0 0 0-9.087 0z"/>
        <path fill="#FFF" stroke="#252525" stroke-width="5" d="M226.948 101.879c-19.82-10.587-40.826-12.712-60.745-6.147-3.15 1.04-4.911 4.592-3.932 7.935.978 3.345 4.323 5.212 7.476 4.175 16.905-5.574 34.828-3.719 51.83 5.362 3 1.604 6.144 3.575 9.096 5.7A5.703 5.703 0 0 0 234.02 120c1.912 0 3.793-.973 4.947-2.78 1.853-2.897 1.142-6.84-1.587-8.807a92.456 92.456 0 0 0-10.433-6.534z"/>
        <g transform="translate(41 38)">
            <mask id="b" fill="#fff">
                <use xlink:href="#a"/>
            </mask>
            <path fill="#FFF" stroke="#252525" stroke-width="6" d="M240.001 167.651c-5.116 3.516-9.536 6.551-10.187 11.143-.896 6.302-.52 13.265-.157 19.997.45 8.354.96 17.822-1.774 21.763-5.915 8.523-11.031 8.606-29.657 7.57-6.146-.34-13.772-.764-22.813-.777-3.473-.41-9.348.243-13.268 7.867-1.992 3.871-3.062 8.736-4.006 13.027-.474 2.157-1.14 5.188-1.765 6.864H81.962l.805-2.029c8.564-21.569 13.988-37.39 5.732-44.53C71 193.409 59.84 172.909 56.64 150.288h3.538c6.638 0 12.037-5.402 12.037-12.041V103.46c.353-3.821 1.344-6.15 5.74-8.846 14.072-8.624 22.901-23.131 24.172-39.365 14.59-8.673 31.234-13.248 48.333-13.248 28.325 0 61.38 17.524 76.886 40.762 6.647 9.959 13.066 25.453 5.904 42.704-2.333 5.617 1.126 13.408 6.96 25.654 1.89 3.963 4.625 9.702 5.35 12.382-1.229 1.173-3.87 2.986-5.56 4.147zm-197.38-29.257c-.066 0-.145-.082-.145-.148v-8.547h17.85v8.547c0 .067-.08.148-.147.148H42.62zm-.145-20.588h17.85v-8.697h-17.85v8.697zM31.057 84.473c-11.684-7.16-18.66-19.605-18.66-33.294 0-21.514 17.497-39.016 39.003-39.016 21.507 0 39.003 17.503 39.003 39.016 0 13.689-6.974 26.135-18.66 33.295-5.552 3.405-8.853 7.375-10.42 12.74L51.4 97.21l-9.921.004c-1.568-5.364-4.868-9.335-10.421-12.74zm219.887 61.531c-2.437-5.114-6.473-13.583-6.546-16.384 6.952-17.14 4.416-36.109-7.163-53.459-17.806-26.684-54.3-46.052-86.775-46.052-17.165 0-33.928 4.095-49.008 11.911C97.125 18.307 76.335.27 51.4.27 23.337.27.507 23.11.507 51.18c0 17.858 9.1 34.097 24.338 43.436 4.393 2.692 5.387 5.02 5.74 8.833v34.797c0 6.64 5.399 12.042 12.035 12.042h2.021c3.266 26.031 15.86 49.666 35.852 67.057.189.588.738 3.342-1.624 11.559-1.84 6.4-4.664 13.51-7.154 19.784-1.667 4.198-3.107 7.824-3.977 10.565A5.945 5.945 0 0 0 73.404 267h84.858c2.788 0 6.617-1.249 9.028-7.198 1.05-2.59 1.734-5.704 2.46-9.003.706-3.213 2.362-10.74 4.009-11.65.001 0 .097-.015.33.02.305.05.613.073.922.073 8.887 0 16.149.402 22.555.757 18.79 1.044 30.133 1.674 40.083-12.663 5.06-7.291 4.486-17.925 3.88-29.184-.313-5.803-.636-11.792-.063-16.77 1.037-1.024 3.635-2.808 5.264-3.926 5.604-3.85 10.897-7.486 10.897-13.013.002-4.2-2.539-9.743-6.683-18.439z" mask="url(#b)"/>
        </g>
        <path fill="#FFF" stroke="#252525" stroke-width="6" d="M108.61 67.658a5.902 5.902 0 0 0-7.952 2.543 5.909 5.909 0 0 0 2.54 7.957c3.525 1.82 5.666 4.291 6.546 7.553 1.392 5.166-.714 10.754-1.638 12.206a5.91 5.91 0 0 0 4.971 9.083c1.95 0 3.858-.965 4.983-2.732 2.518-3.951 5.416-12.975 3.082-21.633-1.743-6.466-6.077-11.644-12.532-14.977z"/>
        <g transform="translate(86)">
            <mask id="d" fill="#fff">
                <use xlink:href="#c"/>
            </mask>
            <path fill="#FFF" stroke="#252525" stroke-width="6" d="M6.976.599c-3.682 0-6.667 2.687-6.667 6v17.104c0 3.313 2.985 6 6.667 6 3.681 0 6.667-2.687 6.667-6V6.6c0-3.313-2.986-6-6.667-6" mask="url(#d)"/>
        </g>
        <path fill="#FFF" stroke="#252525" stroke-width="6" d="M8.978 84C5.677 84 3 86.911 3 90.5 3 94.09 5.677 97 8.978 97h17.044C29.323 97 32 94.09 32 90.5c0-3.589-2.677-6.5-5.978-6.5H8.978zM63.217 31.599l-8.32-15.465c-1.613-2.997-5.185-4.023-7.977-2.294-2.792 1.731-3.75 5.563-2.137 8.56l8.32 15.465C54.187 39.876 56.149 41 58.166 41c.991 0 1.996-.27 2.915-.841 2.792-1.73 3.75-5.563 2.137-8.56M39.866 52.103L24.4 43.783c-2.996-1.612-6.83-.655-8.56 2.137-1.73 2.793-.703 6.363 2.294 7.976l15.466 8.32a6.585 6.585 0 0 0 3.126.784c2.166 0 4.272-1.047 5.433-2.92 1.73-2.792.704-6.364-2.293-7.977M171.159 45.92c-1.731-2.792-5.563-3.75-8.559-2.137l-15.466 8.32c-2.997 1.613-4.024 5.185-2.293 7.976 1.16 1.874 3.266 2.921 5.432 2.921a6.59 6.59 0 0 0 3.127-.784l15.466-8.32c2.997-1.612 4.024-5.183 2.293-7.976M42.16 119.92c-1.73-2.792-5.56-3.748-8.558-2.138l-15.468 8.32c-2.996 1.613-4.024 5.184-2.294 7.977C17 135.953 19.107 137 21.272 137c1.063 0 2.14-.252 3.127-.782l15.467-8.321c2.996-1.612 4.024-5.184 2.293-7.977M59.203 143.782c-2.673-1.61-6.092-.654-7.636 2.136l-6.817 12.327c-1.544 2.791-.628 6.361 2.046 7.972.88.53 1.842.783 2.79.783 1.932 0 3.812-1.046 4.847-2.92l6.817-12.326c1.544-2.791.628-6.36-2.047-7.972M135.08 13.84c-2.794-1.73-6.364-.703-7.976 2.294l-8.32 15.465c-1.613 2.997-.657 6.83 2.136 8.56.92.57 1.924.841 2.914.841 2.018 0 3.98-1.124 5.062-3.135l8.32-15.464c1.613-2.997.656-6.83-2.136-8.56"/>
    </g>
</svg>
