<svg xmlns="http://www.w3.org/2000/svg" xmlns:xlink="http://www.w3.org/1999/xlink" width="341" height="262" viewBox="0 0 341 262">
    <defs>
        <path id="a" d="M0 .952h156.102V263H0z"/>
        <path id="c" d="M0 .952h156.102V263H0z"/>
        <path id="e" d="M0 263.048h156.102V1H0z"/>
        <path id="g" d="M0 .952h156.102V263H0z"/>
        <path id="i" d="M0 .952h156.102V263H0z"/>
        <path id="k" d="M0 263.048h156.102V1H0z"/>
    </defs>
    <g fill="none" fill-rule="evenodd" opacity=".5">
        <g transform="translate(0 -1)">
            <g transform="translate(0 .048)">
                <mask id="b" fill="#fff">
                    <use xlink:href="#a"/>
                </mask>
                <path fill="#FEFEFE" d="M15.961 4.952c-6.596 0-11.96 5.366-11.96 11.962v230.124C4 253.634 9.364 259 15.96 259h124.18c6.594 0 11.961-5.366 11.961-11.962V16.914c0-6.596-5.367-11.962-11.962-11.962H15.961zM140.141 263H15.96c-8.8 0-15.96-7.16-15.96-15.962V16.914C0 8.112 7.16.952 15.96.952h124.18c8.8 0 15.961 7.16 15.961 15.962v230.124c0 8.802-7.16 15.962-15.962 15.962z" mask="url(#b)"/>
            </g>
            <g transform="translate(0 .048)">
                <mask id="d" fill="#fff">
                    <use xlink:href="#c"/>
                </mask>
                <path fill="#FEFEFE" d="M15.961 4.952c-6.596 0-11.96 5.366-11.96 11.962v230.124C4 253.634 9.364 259 15.96 259h124.18c6.594 0 11.961-5.366 11.961-11.962V16.914c0-6.596-5.367-11.962-11.962-11.962H15.961zM140.141 263H15.96c-8.8 0-15.96-7.16-15.96-15.962V16.914C0 8.112 7.16.952 15.96.952h124.18c8.8 0 15.961 7.16 15.961 15.962v230.124c0 8.802-7.16 15.962-15.962 15.962z" mask="url(#d)"/>
            </g>
            <mask id="f" fill="#fff">
                <use xlink:href="#e"/>
            </mask>
            <path fill="#FEFEFE" d="M16.004 233.375h124.208V19.962H16.004v213.413zm-3.775 4h131.757V15.962H12.229v221.413z" mask="url(#f)"/>
            <path fill="#3A3A3A" d="M108.68 80.389c0 16.916-13.713 30.629-30.63 30.629-16.915 0-30.628-13.713-30.628-30.63 0-16.914 13.713-30.628 30.629-30.628 16.916 0 30.629 13.714 30.629 30.629" mask="url(#f)"/>
            <path stroke="#FEFEFE" stroke-width="2" d="M85.29 253.234h-14.5a4.513 4.513 0 0 1-4.5-4.5c0-2.475 2.024-4.5 4.5-4.5h14.5c2.475 0 4.5 2.025 4.5 4.5s-2.025 4.5-4.5 4.5z" mask="url(#f)"/>
            <path fill="#D1D1D1" d="M85.49 73.574a8.014 8.014 0 1 1-16.03.002 8.014 8.014 0 0 1 16.03-.002" mask="url(#f)"/>
            <path fill="#D1D1D1" d="M89.793 93.87c0 7.005-5.68 7.153-12.685 7.153-7.005 0-12.685-.148-12.685-7.154s5.68-12.686 12.685-12.686c7.005 0 12.685 5.68 12.685 12.686" mask="url(#f)"/>
            <path fill="#3A3A3A" d="M26.626 144.061h102.5v-16.5h-102.5zM26.859 169.95h102.5v-16.5h-102.5z" mask="url(#f)"/>
            <path fill="#D1D1D1" d="M36.082 133.736a1.71 1.71 0 1 1-3.422 0 1.71 1.71 0 0 1 3.422 0" mask="url(#f)"/>
            <path fill="#D1D1D1" d="M37.002 138.07c0 1.495-1.213 1.528-2.709 1.528s-2.709-.033-2.709-1.529a2.71 2.71 0 0 1 5.418 0M31.199 165.389h5.803v-4.653h-5.803zM32.085 160.736v-.313c0-1.108.907-2.016 2.016-2.016 1.108 0 2.015.907 2.015 2.016v.313h.65v-.415c0-1.465-1.2-2.665-2.665-2.665a2.673 2.673 0 0 0-2.666 2.665v.415h.65z" mask="url(#f)"/>
        </g>
        <g transform="translate(184 -1)">
            <g transform="translate(0 .048)">
                <mask id="h" fill="#fff">
                    <use xlink:href="#g"/>
                </mask>
                <path fill="#FEFEFE" d="M15.96 4.952C9.366 4.952 4 10.318 4 16.914v230.124C4 253.634 9.365 259 15.96 259h124.18c6.595 0 11.962-5.366 11.962-11.962V16.914c0-6.596-5.367-11.962-11.962-11.962H15.96zM140.14 263H15.96C7.16 263 0 255.84 0 247.038V16.914C0 8.113 7.16.952 15.96.952h124.18c8.8 0 15.962 7.16 15.962 15.962v230.124c0 8.802-7.161 15.962-15.962 15.962z" mask="url(#h)"/>
            </g>
            <g transform="translate(0 .048)">
                <mask id="j" fill="#fff">
                    <use xlink:href="#i"/>
                </mask>
                <path fill="#FEFEFE" d="M15.96 4.952C9.366 4.952 4 10.318 4 16.914v230.124C4 253.634 9.365 259 15.96 259h124.18c6.595 0 11.962-5.366 11.962-11.962V16.914c0-6.596-5.367-11.962-11.962-11.962H15.96zM140.14 263H15.96C7.16 263 0 255.84 0 247.038V16.914C0 8.113 7.16.952 15.96.952h124.18c8.8 0 15.962 7.16 15.962 15.962v230.124c0 8.802-7.161 15.962-15.962 15.962z" mask="url(#j)"/>
            </g>
            <mask id="l" fill="#fff">
                <use xlink:href="#k"/>
            </mask>
            <path fill="#FEFEFE" d="M16.004 233.375h124.209V19.962H16.004v213.413zm-3.775 4h131.757V15.962H12.229v221.413z" mask="url(#l)"/>
            <path stroke="#FEFEFE" stroke-width="2" d="M85.29 253.233h-14.5a4.513 4.513 0 0 1-4.5-4.5c0-2.475 2.025-4.5 4.5-4.5h14.5c2.475 0 4.5 2.025 4.5 4.5 0 2.476-2.025 4.5-4.5 4.5z" mask="url(#l)"/>
            <path fill="#3A3A3A" d="M26.108 89.233h104V39.9h-104zM26.108 206.002h104v-104h-104z" mask="url(#l)"/>
            <path fill="#D1D1D1" d="M53.595 59.218a5.92 5.92 0 1 1-11.842 0 5.92 5.92 0 0 1 5.92-5.922 5.92 5.92 0 0 1 5.922 5.922" mask="url(#l)"/>
            <path fill="#D1D1D1" d="M56.775 74.212c0 5.176-4.196 5.286-9.373 5.286-5.176 0-9.372-.11-9.372-5.286a9.372 9.372 0 0 1 9.372-9.372 9.372 9.372 0 0 1 9.373 9.372" mask="url(#l)"/>
            <path stroke="#919090" stroke-width="2" d="M67.602 59.85h51.5M67.602 70.108h51.5" mask="url(#l)"/>
        </g>
    </g>
</svg>
