<svg xmlns="http://www.w3.org/2000/svg" xmlns:xlink="http://www.w3.org/1999/xlink" width="238" height="407" viewBox="0 0 238 407">
    <defs>
        <path id="a" d="M0 0h237.747v407H0z"/>
    </defs>
    <g fill="none" fill-rule="evenodd" opacity=".5">
        <g>
            <mask id="b" fill="#fff">
                <use xlink:href="#a"/>
            </mask>
            <path fill="#FFF" stroke="#252525" stroke-width="9" d="M182.04 98.453c-4.114 0-7.458-3.352-7.458-7.472 0-4.12 3.345-7.472 7.457-7.472s7.457 3.351 7.457 7.472c0 4.12-3.345 7.472-7.457 7.472zm35.09 139.77c4.112 0 7.458 3.35 7.458 7.471v140.649c0 4.12-3.345 7.471-7.458 7.471h-70.183c-4.112 0-7.458-3.352-7.458-7.471V245.694c0-4.12 3.345-7.471 7.458-7.471h28.512v26.716l-9.822-9.843a6.57 6.57 0 0 0-9.305 0 6.6 6.6 0 0 0 0 9.323l21.055 21.097c.008.009.018.016.026.024.146.144.298.283.456.414.074.06.152.113.227.17.097.072.19.147.29.215.091.06.184.113.276.167.091.055.182.113.277.164.093.05.191.093.288.14.098.046.194.095.296.137.093.038.19.069.285.104.108.039.214.08.322.113.097.028.194.05.292.075.11.027.22.058.332.081.113.024.227.036.341.052.098.014.196.033.295.043a6.557 6.557 0 0 0 1.297 0c.101-.01.197-.028.295-.043.115-.017.23-.03.342-.052.114-.023.222-.054.333-.081.097-.025.194-.046.29-.075.11-.034.216-.074.323-.113.096-.034.191-.066.285-.104.1-.043.198-.092.297-.14.095-.045.192-.088.287-.138.094-.05.185-.109.277-.164.092-.055.184-.108.274-.167.1-.067.194-.142.291-.215.075-.057.153-.11.227-.17.159-.13.31-.267.456-.413.009-.009.019-.015.026-.024l21.056-21.097a6.601 6.601 0 0 0 0-9.323 6.571 6.571 0 0 0-9.306 0l-9.823 9.843v-26.716h28.513zm-70.182-69.445c-4.112 0-7.458-3.353-7.458-7.473v-53.527l12.11-12.135a6.601 6.601 0 0 0 0-9.323l-12.11-12.134V20.657c0-4.12 3.345-7.472 7.458-7.472h70.183c4.112 0 7.458 3.352 7.458 7.472v140.648c0 4.12-3.345 7.473-7.458 7.473h-28.512v-58.224c8.15-2.758 14.036-10.487 14.036-19.572 0-11.39-9.248-20.658-20.616-20.658s-20.616 9.267-20.616 20.658c0 9.086 5.886 16.814 14.036 19.572v58.224h-28.511zm-48.69-84.39H75.243C72.49 76.224 64.777 70.325 55.71 70.325c-11.368 0-20.617 9.267-20.617 20.658 0 9.086 5.887 16.814 14.037 19.572v58.224H20.617c-4.112 0-7.457-3.353-7.457-7.473V20.657c0-4.12 3.345-7.472 7.457-7.472h70.184c4.112 0 7.457 3.352 7.457 7.472V84.39zm0 76.917c0 4.12-3.346 7.473-7.458 7.473H62.288v-58.224a20.73 20.73 0 0 0 12.954-12.98h23.015v63.731zm-42.55-62.852c-4.111 0-7.457-3.352-7.457-7.472 0-4.12 3.346-7.472 7.458-7.472s7.457 3.351 7.457 7.472c0 4.12-3.345 7.472-7.457 7.472zM90.8 238.223c4.112 0 7.458 3.35 7.458 7.471v140.649c0 4.12-3.346 7.471-7.458 7.471H20.616c-4.111 0-7.457-3.352-7.457-7.471V245.694c0-4.12 3.345-7.471 7.457-7.471H49.13v26.716l-9.822-9.843a6.571 6.571 0 0 0-9.306 0 6.602 6.602 0 0 0 0 9.323l21.055 21.097.026.024c.146.144.298.283.456.414.074.06.152.113.227.17.097.072.19.147.291.215.09.06.183.113.275.167.092.055.182.113.277.164.093.05.19.093.288.14.098.046.194.095.295.137.094.038.19.069.287.104.107.039.212.08.321.113.097.028.194.05.291.075.11.027.22.058.333.081.113.024.227.036.34.052.1.014.197.033.296.043a6.557 6.557 0 0 0 1.298 0c.1-.01.197-.028.295-.043.114-.017.228-.03.341-.052.114-.023.222-.054.333-.081.097-.025.194-.046.29-.075.11-.034.216-.074.323-.113.095-.034.191-.066.285-.104.1-.043.198-.092.296-.14.096-.045.193-.088.287-.138.095-.05.185-.109.277-.164.092-.055.185-.108.275-.167.1-.067.195-.142.291-.215.075-.057.153-.11.227-.17.159-.13.31-.267.456-.413.009-.009.018-.015.026-.024l21.055-21.097a6.601 6.601 0 0 0 0-9.323 6.571 6.571 0 0 0-9.305 0l-9.823 9.843v-26.716H90.8zm126.33-56.26c11.368 0 20.617-9.267 20.617-20.658V20.657C237.747 9.267 228.499 0 217.13 0h-70.183c-11.368 0-20.616 9.267-20.616 20.657v42.655a6.55 6.55 0 0 0-5.091 1.91 6.601 6.601 0 0 0 0 9.323l9.823 9.843h-19.646v-63.73C111.417 9.266 102.169 0 90.8 0H20.616C9.25 0 0 9.267 0 20.657v140.648c0 11.39 9.249 20.658 20.616 20.658H49.13v43.074H20.616C9.25 225.037 0 234.304 0 245.694v140.649C0 397.733 9.25 407 20.616 407H90.8c11.368 0 20.617-9.267 20.617-20.657V245.694c0-11.39-9.25-20.657-20.617-20.657H62.288v-43.074H90.8c11.368 0 20.617-9.267 20.617-20.658v-63.73h19.645l-9.823 9.842a6.601 6.601 0 0 0 0 9.323 6.556 6.556 0 0 0 4.653 1.931c.147 0 .292-.01.438-.021v42.655c0 11.39 9.25 20.657 20.617 20.657h28.512v43.074h-28.512c-11.368 0-20.617 9.267-20.617 20.657v140.65c0 11.389 9.25 20.656 20.617 20.656h70.184c11.367 0 20.616-9.267 20.616-20.657V245.694c0-11.39-9.249-20.657-20.616-20.657h-28.513v-43.074h28.512z" mask="url(#b)"/>
        </g>
        <path fill="#FFF" stroke="#252525" stroke-width="9" d="M183 324.596c-4.19 0-7.596-3.407-7.596-7.596 0-4.19 3.408-7.596 7.596-7.596 4.188 0 7.595 3.408 7.595 7.596 0 4.188-3.407 7.596-7.595 7.596M183 296c-11.58 0-21 9.42-21 21s9.42 21 21 21 21-9.42 21-21-9.42-21-21-21M56 324.596c-4.188 0-7.596-3.407-7.596-7.596 0-4.19 3.408-7.596 7.596-7.596 4.188 0 7.596 3.408 7.596 7.596 0 4.188-3.408 7.596-7.596 7.596M56 296c-11.58 0-21 9.42-21 21s9.42 21 21 21 21-9.42 21-21-9.42-21-21-21"/>
    </g>
</svg>
