<svg xmlns="http://www.w3.org/2000/svg" width="90" height="20" viewBox="0 0 90 20">
    <g fill="#fff" fill-rule="evenodd">
        <path d="M80.001 0C74.478 0 70 4.478 70 10.001 70 15.522 74.478 20 80.001 20 85.522 20 90 15.522 90 10.001 90 4.478 85.522 0 80.001 0zm3.801 7.88c.003.09.005.18.005.27 0 2.742-2.036 5.905-5.757 5.905a5.638 5.638 0 0 1-3.103-.932 4.007 4.007 0 0 0 2.997-.859 2.034 2.034 0 0 1-1.891-1.44 2.129 2.129 0 0 0 .935-.037c-.927-.19-1.604-1.03-1.604-2.037v-.024a1.9 1.9 0 0 0 .898.259 2.094 2.094 0 0 1-.911-1.728c0-.38.095-.738.268-1.043a5.692 5.692 0 0 0 4.17 2.167 2.007 2.007 0 0 1-.054-.471c0-1.146.905-2.076 2.022-2.076.583 0 1.109.25 1.478.654a3.943 3.943 0 0 0 1.285-.504c-.15.485-.472.893-.89 1.149.41-.05.8-.16 1.161-.327a4.127 4.127 0 0 1-1.009 1.075zM45.001 0C39.478 0 35 4.478 35 10.001 35 15.522 39.478 20 45.001 20 50.522 20 55 15.522 55 10.001 55 4.478 50.522 0 45.001 0zm4.865 14.229c0 .295-.145.609-.437.609h-2.46V11.15h1.251l.19-1.58h-1.441v-.944c0-.421.113-.637.719-.637h.861V6.611c-.263-.018-.671-.058-1.206-.058-1.112 0-1.954.68-1.954 1.928V9.57h-1.317v1.58h1.317v3.688h-4.563c-.295 0-.442-.314-.442-.61V5.627c0-.295.147-.534.442-.534h8.603c.292 0 .437.24.437.534v8.603zM10.001 0C4.478 0 0 4.478 0 10.001 0 15.522 4.478 20 10.001 20 15.522 20 20 15.522 20 10.001 20 4.478 15.522 0 10.001 0zM5.647 8.395h1.844v6.058H5.647V8.395zm.814-.527h-.013c-.687 0-1.13-.524-1.13-1.107 0-.592.456-1.074 1.156-1.074.698 0 1.128.498 1.144 1.09 0 .582-.446 1.09-1.157 1.09zm8.669 6.585h-2.37v-3.069c0-.814-.272-1.367-1.012-1.367-.564 0-.89.374-1.038.735-.055.13-.058.308-.058.49v3.21H8.613s.027-5.53 0-6.057h2.039V9.43c.263-.411.895-.999 1.98-.999 1.347 0 2.498.862 2.498 2.721v3.3z"/>
    </g>
</svg>
