<svg xmlns="http://www.w3.org/2000/svg" xmlns:xlink="http://www.w3.org/1999/xlink" width="250" height="164" viewBox="0 0 403 263">
    <defs>
        <path id="a" d="M0 .952h156.102V263H0z"/>
        <path id="c" d="M0 .952h156.102V263H0z"/>
        <path id="e" d="M0 263.048h156.102V1H0z"/>
        <path id="g" d="M0 .952h156.102V263H0z"/>
        <path id="i" d="M0 .952h156.102V263H0z"/>
        <path id="k" d="M0 263.048h156.102V1H0z"/>
    </defs>
    <g fill="none" fill-rule="evenodd" opacity=".5">
        <g stroke="#FFF" transform="translate(175 124)">
            <path stroke-width="3" d="M4.39 6.914h48.633"/>
            <ellipse cx="3.951" cy="7.346" fill="#252525" stroke-width="2" rx="3.951" ry="3.889"/>
            <path stroke-linecap="round" stroke-linejoin="round" stroke-width="3" d="M47.407 0l5.243 6.69-5.243 7.959"/>
        </g>
        <g transform="translate(0 -1)">
            <g transform="translate(0 .048)">
                <mask id="b" fill="#fff">
                    <use xlink:href="#a"/>
                </mask>
                <path fill="#FEFEFE" d="M15.96 4.952C9.366 4.952 4 10.318 4 16.914v230.124C4 253.634 9.365 259 15.96 259h124.18c6.595 0 11.962-5.366 11.962-11.962V16.914c0-6.596-5.367-11.962-11.962-11.962H15.96zM140.14 263H15.96C7.16 263 0 255.84 0 247.038V16.914C0 8.114 7.16.952 15.96.952h124.18c8.8 0 15.962 7.161 15.962 15.962v230.124c0 8.802-7.161 15.962-15.962 15.962z" mask="url(#b)"/>
            </g>
            <g transform="translate(0 .048)">
                <mask id="d" fill="#fff">
                    <use xlink:href="#c"/>
                </mask>
                <path fill="#FEFEFE" d="M15.96 4.952C9.366 4.952 4 10.318 4 16.914v230.124C4 253.634 9.365 259 15.96 259h124.18c6.595 0 11.962-5.366 11.962-11.962V16.914c0-6.596-5.367-11.962-11.962-11.962H15.96zM140.14 263H15.96C7.16 263 0 255.84 0 247.038V16.914C0 8.114 7.16.952 15.96.952h124.18c8.8 0 15.962 7.161 15.962 15.962v230.124c0 8.802-7.161 15.962-15.962 15.962z" mask="url(#d)"/>
            </g>
            <mask id="f" fill="#fff">
                <use xlink:href="#e"/>
            </mask>
            <path fill="#FEFEFE" d="M16.004 233.375h124.209V19.962H16.004v213.413zm-3.775 4h131.757V15.962H12.229v221.413z" mask="url(#f)"/>
            <path fill="#FEFEFE" d="M27.922 141.216h100.372v-11.471H27.922v11.471zm-3.653 3.273h107.678v-18.018H24.269v18.018zM27.922 167.216h100.372v-11.471H27.922v11.471zm-3.653 3.273h107.678v-18.018H24.269v18.018z" mask="url(#f)"/>
            <path stroke="#FEFEFE" stroke-width="4" d="M108.68 80.39c0 16.915-13.713 30.628-30.63 30.628-16.915 0-30.628-13.713-30.628-30.629 0-16.916 13.713-30.629 30.629-30.629 16.916 0 30.629 13.713 30.629 30.63z" mask="url(#f)"/>
            <path stroke="#FEFEFE" stroke-width="2" d="M85.29 253.233h-14.5a4.513 4.513 0 0 1-4.5-4.5c0-2.475 2.025-4.5 4.5-4.5h14.5c2.475 0 4.5 2.025 4.5 4.5s-2.025 4.5-4.5 4.5z" mask="url(#f)"/>
        </g>
        <g transform="translate(246)">
            <g transform="translate(0 .048)">
                <mask id="h" fill="#fff">
                    <use xlink:href="#g"/>
                </mask>
                <path fill="#FEFEFE" d="M15.96 4.952C9.366 4.952 4 10.318 4 16.914v230.124C4 253.634 9.365 259 15.96 259h124.18c6.595 0 11.962-5.366 11.962-11.962V16.914c0-6.596-5.367-11.962-11.962-11.962H15.96zM140.14 263H15.96C7.16 263 0 255.84 0 247.038V16.914C0 8.114 7.16.952 15.96.952h124.18c8.8 0 15.962 7.161 15.962 15.962v230.124c0 8.802-7.161 15.962-15.962 15.962z" mask="url(#h)"/>
            </g>
            <g transform="translate(0 .048)">
                <mask id="j" fill="#fff">
                    <use xlink:href="#i"/>
                </mask>
                <path fill="#FEFEFE" d="M15.96 4.952C9.366 4.952 4 10.318 4 16.914v230.124C4 253.634 9.365 259 15.96 259h124.18c6.595 0 11.962-5.366 11.962-11.962V16.914c0-6.596-5.367-11.962-11.962-11.962H15.96zM140.14 263H15.96C7.16 263 0 255.84 0 247.038V16.914C0 8.114 7.16.952 15.96.952h124.18c8.8 0 15.962 7.161 15.962 15.962v230.124c0 8.802-7.161 15.962-15.962 15.962z" mask="url(#j)"/>
            </g>
            <mask id="l" fill="#fff">
                <use xlink:href="#k"/>
            </mask>
            <path fill="#FEFEFE" d="M16.004 233.375h124.209V19.962H16.004v213.413zm-3.775 4h131.757V15.962H12.229v221.413z" mask="url(#l)"/>
            <path stroke="#FEFEFE" stroke-width="2" d="M85.29 253.233h-14.5a4.513 4.513 0 0 1-4.5-4.5c0-2.475 2.025-4.5 4.5-4.5h14.5c2.475 0 4.5 2.025 4.5 4.5s-2.025 4.5-4.5 4.5z" mask="url(#l)"/>
            <path stroke="#FEFEFE" stroke-width="4" d="M26.108 89.234h104V39.901h-104zM26.108 206.002h104v-104h-104zM26.108 39.9l104 49.333M130.108 39.9l-104 49.333" mask="url(#l)"/>
        </g>
    </g>
</svg>
