<?xml version="1.0" standalone="no"?>
<!DOCTYPE svg PUBLIC "-//W3C//DTD SVG 20010904//EN"
 "http://www.w3.org/TR/2001/REC-SVG-20010904/DTD/svg10.dtd">
<svg version="1.0" xmlns="http://www.w3.org/2000/svg"
 width="260.000000pt" height="260.000000pt" viewBox="0 0 260.000000 260.000000"
 preserveAspectRatio="xMidYMid meet">
<metadata>
Created by potrace 1.11, written by Peter Selinger 2001-2013
</metadata>
<g transform="translate(0.000000,260.000000) scale(0.100000,-0.100000)"
fill="#000000" stroke="none">
<path d="M1108 2504 c-2 -1 -31 -4 -65 -7 -33 -3 -104 -20 -157 -38 -271 -89
-469 -294 -555 -574 -136 -439 117 -920 561 -1065 225 -74 489 -50 681 62 26
15 47 26 48 25 1 -1 2 -24 3 -52 l1 -50 232 -1 232 -1 -2 834 -2 835 -185 0
c-102 0 -206 -1 -232 -1 l-46 -1 3 -45 c1 -25 -2 -45 -7 -45 -5 0 -28 11 -51
24 -55 32 -207 83 -277 92 -55 7 -178 13 -182 8z m193 -483 c251 -96 343 -393
190 -615 -41 -59 -133 -128 -202 -150 -102 -34 -224 -24 -319 25 -153 80 -245
276 -208 442 54 243 312 385 539 298z"/>
<path d="M238 480 c-87 -16 -155 -93 -162 -183 -11 -122 97 -227 217 -214 25
3 54 10 63 15 12 7 21 6 29 -2 7 -7 31 -10 58 -8 54 5 48 -15 48 177 0 58 0
129 0 158 l-1 53 -52 2 c-29 1 -55 -3 -58 -9 -4 -6 -16 -6 -31 -1 -43 16 -73
19 -111 12z m105 -140 c31 -34 34 -58 12 -100 -36 -70 -127 -66 -164 7 -14 28
-7 69 16 95 40 45 93 44 136 -2z"/>
<path d="M675 480 c-71 -16 -105 -53 -105 -115 0 -66 18 -83 153 -138 40 -17
45 -28 22 -47 -18 -15 -77 -6 -112 17 -13 9 -25 14 -26 12 -2 -2 -15 -21 -30
-41 -15 -20 -27 -39 -27 -41 0 -12 91 -40 140 -43 73 -5 120 9 155 46 25 26
29 38 28 78 -2 59 -34 90 -123 123 -63 23 -84 44 -59 60 21 13 50 11 83 -6 39
-21 41 -20 72 21 31 40 28 46 -39 65 -52 14 -96 17 -132 9z"/>
<path d="M1073 480 c-50 -11 -96 -43 -126 -88 -24 -35 -29 -53 -29 -106 -1
-133 81 -208 219 -201 90 3 103 14 103 85 l0 59 -34 -20 c-38 -22 -102 -27
-133 -11 -29 16 -47 65 -39 107 13 67 95 94 169 56 l37 -19 0 58 c0 58 0 58
-36 70 -45 15 -89 18 -131 10z"/>
<path d="M1402 471 c-102 -40 -146 -130 -120 -245 13 -58 65 -116 120 -132 62
-20 150 -11 202 20 25 15 46 31 46 35 0 5 -18 21 -40 36 -31 22 -43 25 -54 16
-47 -40 -126 -29 -152 20 -17 34 -31 31 141 33 l130 1 1 40 c0 42 -27 109 -56
136 -51 49 -148 67 -218 40z m136 -107 l26 -29 -40 -5 c-61 -8 -124 0 -124 15
0 8 11 22 25 33 36 28 82 23 113 -14z"/>
<path d="M1898 471 c-46 -15 -60 -16 -75 -6 -10 7 -34 12 -53 11 l-35 -1 -3
-191 -3 -192 46 -4 c25 -2 51 -1 58 2 9 4 12 38 12 128 l0 123 31 20 c40 25
80 25 94 0 5 -11 10 -76 10 -144 l0 -125 39 -4 c79 -7 77 -11 76 157 -1 128
-4 155 -20 182 -32 54 -96 70 -177 44z"/>
<path d="M2170 442 c-5 -359 -5 -352 10 -353 98 -5 202 2 231 14 94 40 137
143 103 244 -33 100 -79 125 -231 129 l-113 3 0 -37z m210 -92 c11 -11 21 -28
21 -37 6 -83 -21 -123 -83 -123 -32 0 -38 3 -39 23 -1 27 -1 139 0 150 2 16
81 7 101 -13z"/>
</g>
</svg>
